/* XPM */
static char * bottom_left_active_xpm[] = {
"34 34 5 1",
" 	c #000000",
".	c #A59F80",
"+	c #5B5746",
"@	c None",
"#	c #DAD7CA",
" .+...++@@@@@@@@@@@@@@@@@@@@@@@@@@",
" +++++.+@@@@@@@@@@@@@@@@@@@@@@@@@@",
" ####.++@@@@@@@@@@@@@@@@@@@@@@@@@@",
" ###.+.+@@@@@@@@@@@@@@@@@@@@@@@@@@",
" ##...++@@@@@@@@@@@@@@@@@@@@@@@@@@",
" #.#.+.+@@@@@@@@@@@@@@@@@@@@@@@@@@",
" ##...++@@@@@@@@@@@@@@@@@@@@@@@@@@",
" #.#.+.+@@@@@@@@@@@@@@@@@@@@@@@@@@",
" ##...++@@@@@@@@@@@@@@@@@@@@@@@@@@",
" #.#.+.+@@@@@@@@@@@@@@@@@@@@@@@@@@",
" ##...++@@@@@@@@@@@@@@@@@@@@@@@@@@",
" #.#.+.+@@@@@@@@@@@@@@@@@@@@@@@@@@",
" ##...++@@@@@@@@@@@@@@@@@@@@@@@@@@",
" #.#.+.+@@@@@@@@@@@@@@@@@@@@@@@@@@",
" ##...++@@@@@@@@@@@@@@@@@@@@@@@@@@",
" #.#.+.+@@@@@@@@@@@@@@@@@@@@@@@@@@",
" ##...++@@@@@@@@@@@@@@@@@@@@@@@@@@",
" #.#.+.+@@@@@@@@@@@@@@@@@@@@@@@@@@",
" ##...++@@@@@@@@@@@@@@@@@@@@@@@@@@",
" #.#.+.+@@@@@@@@@@@@@@@@@@@@@@@@@@",
" ##...++@@@@@@@@@@@@@@@@@@@@@@@@@@",
" #.#.+.+@@@@@@@@@@@@@@@@@@@@@@@@@@",
" ##...++@@@@@@@@@@@@@@@@@@@@@@@@@@",
" #.#.+.+@@@@@@@@@@@@@@@@@@@@@@@@@@",
" ##...++@@@@@@@@@@@@@@@@@@@@@@@@@@",
" #.#.+.+@@@@@@@@@@@@@@@@@@@@@@@@@@",
" ##...++                          ",
" #.#.+.###########################",
" ##...#.#.#.#.#.#.#.#.#.#.#.#.#.#.",
" #.#...........................+#.",
" ##...........................++##",
" #.+.+.+.+.+.+.+.+.+.+.+.+.+.+.+##",
" #++++++++++++++++++++++++++++++##",
"                                  "};
