/* XPM */
static char * bottom_active_xpm[] = {
"2 8 4 1",
" 	c #000000",
".	c #DAD7CA",
"+	c #A59F80",
"@	c #5B5746",
"  ",
"..",
".+",
"++",
"++",
"+@",
"@@",
"  "};
