/* XPM */
static char * bottom_right_active_xpm[] = {
"34 34 5 1",
" 	c None",
".	c #000000",
"+	c #DAD7CA",
"@	c #A59F80",
"#	c #5B5746",
"                          .++@#@#.",
"                          .+@####.",
"                          .++++++.",
"                          .+@++++.",
"                          .++@@@#.",
"                          .+@+@#@.",
"                          .++@@@#.",
"                          .+@+@#@.",
"                          .++@@@#.",
"                          .+@+@#@.",
"                          .++@@@#.",
"                          .+@+@#@.",
"                          .++@@@#.",
"                          .+@+@#@.",
"                          .++@@@#.",
"                          .+@+@#@.",
"                          .++@@@#.",
"                          .+@+@#@.",
"                          .++@@@#.",
"                          .+@+@#@.",
"                          .++@@@#.",
"                          .+@+@#@.",
"                          .++@@@#.",
"                          .+@+@#@.",
"                          .++@@@#.",
"                          .+@+@#@.",
"...........................++@@@#.",
"++++++++++++++++++++++++++++@+@#@.",
"+@+@+@+@+@+@+@+@+@+@+@+@+@+@+@@@#.",
"@#+@@@@@@@@@@@@@@@@@@@@@@@@@@@@#@.",
"##++@@@@@@@@@@@@@@@@@@@@@@@@@@@@#.",
"@#++@#@#@#@#@#@#@#@#@#@#@#@#@#@#@.",
"##++#############################.",
".................................."};
