/* XPM */
static char * close_pressed_xpm[] = {
"24 31 5 1",
" 	c None",
".	c #DAD7CA",
"+	c #A59F80",
"@	c #5B5746",
"#	c #000000",
"....                    ",
"...                     ",
"..                      ",
".                       ",
"+                       ",
"@                       ",
"#                       ",
"@@@@@@@@@@@@@@@@@@@@@@@@",
"@@+@+@+@+@+@+@+@+@+@+@+@",
"@++++++++++++++++++++++.",
"@@++++++++####+++++++++.",
"@+++++++++#++#++++++++..",
"@@++++++++#++##++++++++.",
"@+++++++++#++##+++++++..",
"@@++++++++#++##++++++++.",
"@+++++++++#++##+++++++..",
"@@++#######++#######+++.",
"@+++#++++++++++++++#++..",
"@@++#++++++++++++++##++.",
"@+++#######++########+..",
"@@++++#####++########++.",
"@+++++++++#++##+++++++..",
"@@++++++++#++##++++++++.",
"@+++++++++#++##+++++++..",
"@@++++++++#++##++++++++.",
"@+++++++++#####+++++++..",
"@@++++++++++###++++++++.",
"@+++++++++++++++++++++..",
"@.+.+.+.+.+.+.+.+.+.+.+.",
"+.......................",
"########################"};
