/* XPM */
static char * hide_inactive_xpm[] = {
"25 31 5 1",
" 	c None",
".	c #C6C6C6",
"+	c #808080",
"@	c #424242",
"#	c #000000",
".......................+@",
"+.+.+.+.+.+.+.+.+.+.+.+@@",
"++++++++++++++++++++++++@",
"++++++++++++++++++++++++@",
"@+@+@+@+@+@+@+@+@+@+@+@+@",
"+@+@+@+@+@+@+@+@+@+@+@+@+",
"#########################",
".........................",
".+.+.+.+.+.+.+.+.+.+.+.++",
"..++++++++++++++++++++++@",
".+++++++++++++++++++++++@",
"..+++++++++++++++++++++@@",
".+++++++++++++++++++++++@",
"..+++++++++++++++++++++@@",
".+++++++++++++++++++++++@",
"..+++++++++++++++++++++@@",
".+++################++++@",
"..++#++++++++++++++#+++@@",
".+++#++++++++++++++##+++@",
"..++#################++@@",
".+++++###############+++@",
"..+++++++++++++++++++++@@",
".+++++++++++++++++++++++@",
"..+++++++++++++++++++++@@",
".+++++++++++++++++++++++@",
"..+++++++++++++++++++++@@",
".+++++++++++++++++++++++@",
"..+++++++++++++++++++++@@",
".+@+@+@+@+@+@+@+@+@+@+@+@",
"+@@@@@@@@@@@@@@@@@@@@@@@@",
"#########################"};
