/* XPM */
static char * left_active_xpm[] = {
"8 2 4 1",
" 	c #000000",
".	c #DAD7CA",
"+	c #A59F80",
"@	c #5B5746",
" ..+++@@",
" .+.+@+@"};
