/* XPM */
static char * menu_active_xpm[] = {
"24 31 5 1",
" 	c None",
".	c #5B5746",
"+	c #A59F80",
"@	c #DAD7CA",
"#	c #000000",
"                     @+.",
"                     +..",
"                      +.",
"                      +.",
"                      +.",
"                      +.",
"                       #",
"........................",
"..+.+.+.+.+.+.+.+.+.+.+.",
".++++++++++++++++++++++@",
"..+++++++++++++++++++++@",
".+++++++++++++++++++++@@",
"..+++++++++++++++++++++@",
".+++++++++++++++++++++@@",
"..+++++++++++++++++++++@",
".+++++++++++++++++++++@@",
"..++################+++@",
".+++#++++++++++++++#++@@",
"..++#++++++++++++++##++@",
".+++#################+@@",
"..++++###############++@",
".+++++++++++++++++++++@@",
"..+++++++++++++++++++++@",
".+++++++++++++++++++++@@",
"..+++++++++++++++++++++@",
".+++++++++++++++++++++@@",
"..+++++++++++++++++++++@",
".+++++++++++++++++++++@@",
".++@+@+@+@+@+@+@+@+@+@+@",
"+@@@@@@@@@@@@@@@@@@@@@@@",
"########################"};
