/* XPM */
static char * title_4_active_xpm[] = {
"3 32 4 1",
" 	c #000000",
".	c #DAD7CA",
"+	c #A59F80",
"@	c #5B5746",
"   ",
"...",
".+.",
"+++",
"+++",
"+@+",
"@+@",
"   ",
"...",
"+.+",
"++@",
"+@@",
"++@",
"+@@",
"++@",
"+@@",
"++@",
"+@@",
"++@",
"+@@",
"++@",
"+@@",
"++@",
"+@@",
"++@",
"+@@",
"++@",
"+@@",
"++@",
"+@@",
"@@@",
"   "};
