/* XPM */
static char * title_2_inactive_xpm[] = {
"4 32 4 1",
" 	c #000000",
".	c #C6C6C6",
"+	c #808080",
"@	c #424242",
"    ",
"....",
"...+",
"..++",
".+++",
"+@+@",
"@+@+",
"    ",
"....",
"..+.",
".+++",
"..++",
".+++",
"..++",
".+++",
"..++",
".+++",
"..++",
".+++",
"..++",
".+++",
"..++",
".+++",
"..++",
".+++",
"..++",
".+++",
"..++",
".+++",
".@+@",
"+@@@",
"    "};
