/* XPM */
static char * title_3_inactive_xpm[] = {
"4 32 5 1",
" 	c None",
".	c #000000",
"+	c #C6C6C6",
"@	c #808080",
"#	c #424242",
"....",
"++++",
"+@+@",
"@@@@",
"@@@@",
"@#@#",
"#@#@",
"....",
"++++",
"@+@+",
"@@@@",
"@@@@",
"@@@@",
"@@@@",
"@@@@",
"@@@@",
"@@@@",
"@@@@",
"@@@@",
"@@@@",
"@@@@",
"@@@@",
"@@@@",
"@@@@",
"@@@@",
"@@@@",
"@@@@",
"@@@@",
"@@@@",
"@#@#",
"####",
"...."};
