/* XPM */
static char * top_left_inactive_xpm[] = {
"8 34 4 1",
" 	c #000000",
".	c #C6C6C6",
"+	c #808080",
"@	c #424242",
"        ",
" .......",
" ..+.+.+",
" .+.++++",
" ..+++++",
" .+.+@+@",
" ..+++@+",
" .+.+@+ ",
" ..+++@ ",
" .+.+@+ ",
" ..+++@ ",
" .+.+@+ ",
" ..+++@ ",
" .+.+@+ ",
" ..+++@ ",
" .+.+@+ ",
" ..+++@ ",
" .+.+@+ ",
" ..+++@ ",
" .+.+@+ ",
" ..+++@ ",
" .+.+@+ ",
" ..+++@ ",
" .+.+@+ ",
" ..+++@ ",
" .+.+@+ ",
" ..+++@ ",
" .+.+@+ ",
" ..+++@ ",
" .+.+@+ ",
" +@+++@ ",
" @@@@@+ ",
" ....+@@",
" ...+@+@"};
