/* XPM */
static char * top_right_active_xpm[] = {
"8 34 4 1",
" 	c #000000",
".	c #DAD7CA",
"+	c #A59F80",
"@	c #5B5746",
"        ",
"......+ ",
".+.+.+@ ",
"+++++@+ ",
"++++++@ ",
"+@+.+@+ ",
"@+.+++@ ",
" .+.+@+ ",
" ..+++@ ",
" .+.+@+ ",
" ..+++@ ",
" .+.+@+ ",
" ..+++@ ",
" .+.+@+ ",
" ..+++@ ",
" .+.+@+ ",
" ..+++@ ",
" .+.+@+ ",
" ..+++@ ",
" .+.+@+ ",
" ..+++@ ",
" .+.+@+ ",
" ..+++@ ",
" .+.+@+ ",
" ..+++@ ",
" .+.+@+ ",
" ..+++@ ",
" .+.+@+ ",
" ..+++@ ",
" .+.+@+ ",
" ..+@+@ ",
" .+@@@@ ",
" ...... ",
" .+.... "};
